<svg width="393" height="99" viewBox="0 0 393 99" fill="none" xmlns="http://www.w3.org/2000/svg">
<g clip-path="url(#clip0_2_28)">
<path d="M-25 65.2527L-18.7778 66.8676C-12.5556 68.6044 -0.11111 71.6514 12.3333 66.8676C24.7778 61.901 37.2222 49.1036 49.6667 40.8768C62.1111 32.6499 74.5556 29.6029 87 36.0016C99.4444 42.4002 111.889 58.854 124.333 63.6378C136.778 68.6044 149.222 61.901 161.667 50.6271C174.111 39.3533 186.556 22.8995 199 29.5115C211.444 36.0015 223.889 84.7042 236.333 89.5794C248.778 94.4546 261.222 55.5023 273.667 47.3669C286.111 39.3533 298.556 42.4003 311 42.4917C323.444 42.4003 335.889 15.8517 348.333 12.5C360.778 9.14831 373.222 29.6029 385.667 26.2512C398.111 22.8995 410.556 19.8525 416.778 18.1157L423 16.5008V-3H416.778C410.556 -3 398.111 -3 385.667 -3C373.222 -3 360.778 -3 348.333 -3C335.889 -3 323.444 -3 311 -3C298.556 -3 286.111 -3 273.667 -3C261.222 -3 248.778 -3 236.333 -3C223.889 -3 211.444 -3 199 -3C186.556 -3 174.111 -3 161.667 -3C149.222 -3 136.778 -3 124.333 -3C111.889 -3 99.4444 -3 87 -3C74.5556 -3 62.1111 -3 49.6667 -3C37.2222 -3 24.7778 -3 12.3333 -3C-0.11111 -3 -12.5556 -3 -18.7778 -3H-25V65.2527Z" fill="url(#paint0_linear_2_28)"/>
</g>
<defs>
<linearGradient id="paint0_linear_2_28" x1="-68.4232" y1="35.4828" x2="389.144" y2="6.09932" gradientUnits="userSpaceOnUse">
<stop stop-color="#919EFE"/>
<stop offset="0.384982" stop-color="#8571FB"/>
<stop offset="1" stop-color="#7F5DF9"/>
</linearGradient>
<clipPath id="clip0_2_28">
<rect width="457" height="99" fill="white" transform="matrix(1 0 0 -1 -34 99)"/>
</clipPath>
</defs>
</svg>
